<mxfile host="app.diagrams.net" agent="Mozilla/5.0 (Windows NT 10.0; Win64; x64) AppleWebKit/537.36 (KHTML, like Gecko) Chrome/141.0.0.0 Safari/537.36 Edg/141.0.0.0" version="28.2.5">
  <diagram name="Page-1" id="MMgxCEddrgRY_YAbqDCh">
    <mxGraphModel dx="1830" dy="2142" grid="1" gridSize="10" guides="1" tooltips="1" connect="1" arrows="1" fold="1" page="1" pageScale="1" pageWidth="827" pageHeight="1169" math="0" shadow="0">
      <root>
        <mxCell id="0" />
        <mxCell id="1" parent="0" />
        <mxCell id="hIhfDgIC340DiDdBrvi9-67" style="edgeStyle=orthogonalEdgeStyle;rounded=0;orthogonalLoop=1;jettySize=auto;html=1;entryX=0;entryY=0.5;entryDx=0;entryDy=0;" parent="1" source="hIhfDgIC340DiDdBrvi9-6" target="hIhfDgIC340DiDdBrvi9-10" edge="1">
          <mxGeometry relative="1" as="geometry" />
        </mxCell>
        <mxCell id="hIhfDgIC340DiDdBrvi9-6" value="" style="rounded=1;whiteSpace=wrap;html=1;" parent="1" vertex="1">
          <mxGeometry x="280" width="320" height="560" as="geometry" />
        </mxCell>
        <mxCell id="hIhfDgIC340DiDdBrvi9-1" value="&lt;font style=&quot;font-size: 17px;&quot;&gt;Raw papers&lt;/font&gt;" style="rounded=0;whiteSpace=wrap;html=1;" parent="1" vertex="1">
          <mxGeometry x="360" y="80" width="160" height="80" as="geometry" />
        </mxCell>
        <mxCell id="hIhfDgIC340DiDdBrvi9-3" value="&lt;font style=&quot;font-size: 17px;&quot;&gt;GitHub repos&lt;/font&gt;" style="rounded=0;whiteSpace=wrap;html=1;" parent="1" vertex="1">
          <mxGeometry x="360" y="200" width="160" height="80" as="geometry" />
        </mxCell>
        <mxCell id="hIhfDgIC340DiDdBrvi9-4" value="&lt;font style=&quot;font-size: 17px;&quot;&gt;Preprints&lt;/font&gt;" style="rounded=0;whiteSpace=wrap;html=1;" parent="1" vertex="1">
          <mxGeometry x="360" y="320" width="160" height="80" as="geometry" />
        </mxCell>
        <mxCell id="hIhfDgIC340DiDdBrvi9-7" value="&lt;font style=&quot;font-size: 17px;&quot;&gt;Snowball results&lt;/font&gt;" style="rounded=0;whiteSpace=wrap;html=1;" parent="1" vertex="1">
          <mxGeometry x="360" y="440" width="160" height="80" as="geometry" />
        </mxCell>
        <mxCell id="hIhfDgIC340DiDdBrvi9-8" value="&lt;font style=&quot;font-size: 20px;&quot;&gt;&lt;u&gt;Input Phase&lt;/u&gt;&lt;/font&gt;" style="text;html=1;align=center;verticalAlign=middle;whiteSpace=wrap;rounded=0;" parent="1" vertex="1">
          <mxGeometry x="370" y="20" width="140" height="30" as="geometry" />
        </mxCell>
        <mxCell id="hIhfDgIC340DiDdBrvi9-68" style="edgeStyle=orthogonalEdgeStyle;rounded=0;orthogonalLoop=1;jettySize=auto;html=1;entryX=0;entryY=0.5;entryDx=0;entryDy=0;" parent="1" source="hIhfDgIC340DiDdBrvi9-10" target="hIhfDgIC340DiDdBrvi9-17" edge="1">
          <mxGeometry relative="1" as="geometry" />
        </mxCell>
        <mxCell id="hIhfDgIC340DiDdBrvi9-10" value="" style="rounded=1;whiteSpace=wrap;html=1;" parent="1" vertex="1">
          <mxGeometry x="760" y="-80" width="320" height="720" as="geometry" />
        </mxCell>
        <mxCell id="hIhfDgIC340DiDdBrvi9-11" value="&lt;font style=&quot;font-size: 17px;&quot;&gt;Deduplication&lt;/font&gt;" style="rounded=0;whiteSpace=wrap;html=1;" parent="1" vertex="1">
          <mxGeometry x="840" width="160" height="80" as="geometry" />
        </mxCell>
        <mxCell id="hIhfDgIC340DiDdBrvi9-12" value="&lt;font style=&quot;font-size: 17px;&quot;&gt;Title/Abstract screening&lt;/font&gt;" style="rounded=0;whiteSpace=wrap;html=1;" parent="1" vertex="1">
          <mxGeometry x="820" y="120" width="200" height="80" as="geometry" />
        </mxCell>
        <mxCell id="hIhfDgIC340DiDdBrvi9-13" value="&lt;font style=&quot;font-size: 17px;&quot;&gt;Full-text screening&lt;/font&gt;" style="rounded=0;whiteSpace=wrap;html=1;" parent="1" vertex="1">
          <mxGeometry x="840" y="240" width="160" height="80" as="geometry" />
        </mxCell>
        <mxCell id="hIhfDgIC340DiDdBrvi9-14" value="&lt;font style=&quot;font-size: 17px;&quot;&gt;Normalization&lt;/font&gt;" style="rounded=0;whiteSpace=wrap;html=1;" parent="1" vertex="1">
          <mxGeometry x="840" y="360" width="160" height="80" as="geometry" />
        </mxCell>
        <mxCell id="hIhfDgIC340DiDdBrvi9-15" value="&lt;font style=&quot;font-size: 20px;&quot;&gt;&lt;u&gt;Processing Phase&lt;/u&gt;&lt;/font&gt;" style="text;html=1;align=center;verticalAlign=middle;whiteSpace=wrap;rounded=0;" parent="1" vertex="1">
          <mxGeometry x="820" y="-60" width="200" height="30" as="geometry" />
        </mxCell>
        <mxCell id="hIhfDgIC340DiDdBrvi9-16" value="&lt;font style=&quot;font-size: 17px;&quot;&gt;Taxonomy labeling&lt;/font&gt;" style="rounded=0;whiteSpace=wrap;html=1;" parent="1" vertex="1">
          <mxGeometry x="830" y="500" width="180" height="80" as="geometry" />
        </mxCell>
        <mxCell id="hIhfDgIC340DiDdBrvi9-69" style="edgeStyle=orthogonalEdgeStyle;rounded=0;orthogonalLoop=1;jettySize=auto;html=1;entryX=0;entryY=0.5;entryDx=0;entryDy=0;" parent="1" source="hIhfDgIC340DiDdBrvi9-17" target="hIhfDgIC340DiDdBrvi9-44" edge="1">
          <mxGeometry relative="1" as="geometry" />
        </mxCell>
        <mxCell id="hIhfDgIC340DiDdBrvi9-17" value="" style="rounded=1;whiteSpace=wrap;html=1;" parent="1" vertex="1">
          <mxGeometry x="1241" width="320" height="560" as="geometry" />
        </mxCell>
        <mxCell id="hIhfDgIC340DiDdBrvi9-18" value="&lt;font style=&quot;font-size: 17px;&quot;&gt;Main Data CSV&lt;/font&gt;" style="rounded=0;whiteSpace=wrap;html=1;" parent="1" vertex="1">
          <mxGeometry x="1321" y="80" width="160" height="80" as="geometry" />
        </mxCell>
        <mxCell id="hIhfDgIC340DiDdBrvi9-22" value="&lt;font style=&quot;font-size: 20px;&quot;&gt;&lt;u&gt;Output&lt;/u&gt;&lt;/font&gt;" style="text;html=1;align=center;verticalAlign=middle;whiteSpace=wrap;rounded=0;" parent="1" vertex="1">
          <mxGeometry x="1331" y="20" width="140" height="30" as="geometry" />
        </mxCell>
        <mxCell id="hIhfDgIC340DiDdBrvi9-57" style="edgeStyle=orthogonalEdgeStyle;rounded=0;orthogonalLoop=1;jettySize=auto;html=1;exitX=0.5;exitY=0;exitDx=0;exitDy=0;entryX=0.5;entryY=1;entryDx=0;entryDy=0;" parent="1" source="hIhfDgIC340DiDdBrvi9-32" target="hIhfDgIC340DiDdBrvi9-18" edge="1">
          <mxGeometry relative="1" as="geometry" />
        </mxCell>
        <mxCell id="hIhfDgIC340DiDdBrvi9-32" value="&lt;font style=&quot;font-size: 15px;&quot;&gt;Name of the Paper&lt;/font&gt;" style="rounded=0;whiteSpace=wrap;html=1;" parent="1" vertex="1">
          <mxGeometry x="1250" y="230" width="140" height="40" as="geometry" />
        </mxCell>
        <mxCell id="hIhfDgIC340DiDdBrvi9-58" style="edgeStyle=orthogonalEdgeStyle;rounded=0;orthogonalLoop=1;jettySize=auto;html=1;exitX=0.5;exitY=0;exitDx=0;exitDy=0;" parent="1" source="hIhfDgIC340DiDdBrvi9-33" edge="1">
          <mxGeometry relative="1" as="geometry">
            <mxPoint x="1400" y="160" as="targetPoint" />
          </mxGeometry>
        </mxCell>
        <mxCell id="hIhfDgIC340DiDdBrvi9-33" value="&lt;font style=&quot;font-size: 15px;&quot;&gt;Contributors&lt;/font&gt;" style="rounded=0;whiteSpace=wrap;html=1;" parent="1" vertex="1">
          <mxGeometry x="1410" y="230" width="140" height="40" as="geometry" />
        </mxCell>
        <mxCell id="hIhfDgIC340DiDdBrvi9-34" value="&lt;font style=&quot;font-size: 15px;&quot;&gt;Publication Year&lt;/font&gt;" style="rounded=0;whiteSpace=wrap;html=1;" parent="1" vertex="1">
          <mxGeometry x="1250" y="300" width="140" height="40" as="geometry" />
        </mxCell>
        <mxCell id="hIhfDgIC340DiDdBrvi9-37" value="&lt;font style=&quot;font-size: 15px;&quot;&gt;Venue and Conference&lt;/font&gt;" style="rounded=0;whiteSpace=wrap;html=1;" parent="1" vertex="1">
          <mxGeometry x="1410" y="300" width="140" height="40" as="geometry" />
        </mxCell>
        <mxCell id="hIhfDgIC340DiDdBrvi9-38" value="&lt;font style=&quot;font-size: 15px;&quot;&gt;Class of Paper&lt;/font&gt;" style="rounded=0;whiteSpace=wrap;html=1;" parent="1" vertex="1">
          <mxGeometry x="1250" y="360" width="140" height="40" as="geometry" />
        </mxCell>
        <mxCell id="hIhfDgIC340DiDdBrvi9-39" value="&lt;font style=&quot;font-size: 15px;&quot;&gt;Key Concepts&lt;/font&gt;" style="rounded=0;whiteSpace=wrap;html=1;" parent="1" vertex="1">
          <mxGeometry x="1410" y="360" width="140" height="40" as="geometry" />
        </mxCell>
        <mxCell id="hIhfDgIC340DiDdBrvi9-40" value="&lt;font style=&quot;font-size: 15px;&quot;&gt;LLM Version Details&lt;/font&gt;" style="rounded=0;whiteSpace=wrap;html=1;" parent="1" vertex="1">
          <mxGeometry x="1250" y="420" width="140" height="40" as="geometry" />
        </mxCell>
        <mxCell id="hIhfDgIC340DiDdBrvi9-41" value="&lt;font style=&quot;font-size: 15px;&quot;&gt;Applications&lt;/font&gt;" style="rounded=0;whiteSpace=wrap;html=1;" parent="1" vertex="1">
          <mxGeometry x="1410" y="420" width="140" height="40" as="geometry" />
        </mxCell>
        <mxCell id="hIhfDgIC340DiDdBrvi9-42" value="&lt;font style=&quot;font-size: 15px;&quot;&gt;Results Obtained&lt;/font&gt;" style="rounded=0;whiteSpace=wrap;html=1;" parent="1" vertex="1">
          <mxGeometry x="1250" y="480" width="140" height="40" as="geometry" />
        </mxCell>
        <mxCell id="hIhfDgIC340DiDdBrvi9-43" value="&lt;font style=&quot;font-size: 15px;&quot;&gt;Cyber security techniques used&lt;/font&gt;" style="rounded=0;whiteSpace=wrap;html=1;" parent="1" vertex="1">
          <mxGeometry x="1410" y="480" width="140" height="40" as="geometry" />
        </mxCell>
        <mxCell id="hIhfDgIC340DiDdBrvi9-44" value="" style="rounded=1;whiteSpace=wrap;html=1;" parent="1" vertex="1">
          <mxGeometry x="1720" width="320" height="560" as="geometry" />
        </mxCell>
        <mxCell id="hIhfDgIC340DiDdBrvi9-73" style="edgeStyle=orthogonalEdgeStyle;rounded=0;orthogonalLoop=1;jettySize=auto;html=1;exitX=0.5;exitY=0;exitDx=0;exitDy=0;entryX=0.5;entryY=1;entryDx=0;entryDy=0;" parent="1" source="hIhfDgIC340DiDdBrvi9-45" target="hIhfDgIC340DiDdBrvi9-46" edge="1">
          <mxGeometry relative="1" as="geometry" />
        </mxCell>
        <mxCell id="hIhfDgIC340DiDdBrvi9-45" value="&lt;font style=&quot;font-size: 17px;&quot;&gt;Purpose (Defensive / Attacking)&lt;/font&gt;" style="rounded=0;whiteSpace=wrap;html=1;" parent="1" vertex="1">
          <mxGeometry x="1800" y="80" width="160" height="80" as="geometry" />
        </mxCell>
        <mxCell id="hIhfDgIC340DiDdBrvi9-46" value="&lt;font style=&quot;font-size: 20px;&quot;&gt;&lt;u&gt;Taxonomy Fields Created&lt;/u&gt;&lt;/font&gt;" style="text;html=1;align=center;verticalAlign=middle;whiteSpace=wrap;rounded=0;" parent="1" vertex="1">
          <mxGeometry x="1740" y="20" width="280" height="30" as="geometry" />
        </mxCell>
        <mxCell id="hIhfDgIC340DiDdBrvi9-70" value="&lt;font style=&quot;font-size: 17px;&quot;&gt;Role of LLM&lt;/font&gt;" style="rounded=0;whiteSpace=wrap;html=1;" parent="1" vertex="1">
          <mxGeometry x="1800" y="210" width="160" height="80" as="geometry" />
        </mxCell>
        <mxCell id="hIhfDgIC340DiDdBrvi9-71" value="&lt;font style=&quot;font-size: 17px;&quot;&gt;Security Phase&lt;/font&gt;" style="rounded=0;whiteSpace=wrap;html=1;" parent="1" vertex="1">
          <mxGeometry x="1800" y="340" width="160" height="80" as="geometry" />
        </mxCell>
        <mxCell id="hIhfDgIC340DiDdBrvi9-72" value="&lt;font style=&quot;font-size: 17px;&quot;&gt;Security Activities&lt;/font&gt;" style="rounded=0;whiteSpace=wrap;html=1;" parent="1" vertex="1">
          <mxGeometry x="1800" y="460" width="160" height="80" as="geometry" />
        </mxCell>
        <mxCell id="hIhfDgIC340DiDdBrvi9-74" value="" style="endArrow=none;html=1;rounded=0;" parent="1" target="hIhfDgIC340DiDdBrvi9-45" edge="1">
          <mxGeometry width="50" height="50" relative="1" as="geometry">
            <mxPoint x="1880" y="210" as="sourcePoint" />
            <mxPoint x="1930" y="160" as="targetPoint" />
          </mxGeometry>
        </mxCell>
        <mxCell id="hIhfDgIC340DiDdBrvi9-75" value="" style="endArrow=none;html=1;rounded=0;" parent="1" edge="1">
          <mxGeometry width="50" height="50" relative="1" as="geometry">
            <mxPoint x="1879.79" y="340" as="sourcePoint" />
            <mxPoint x="1879.79" y="290" as="targetPoint" />
          </mxGeometry>
        </mxCell>
        <mxCell id="hIhfDgIC340DiDdBrvi9-76" value="" style="endArrow=none;html=1;rounded=0;" parent="1" edge="1">
          <mxGeometry width="50" height="50" relative="1" as="geometry">
            <mxPoint x="1880" y="460" as="sourcePoint" />
            <mxPoint x="1880" y="420" as="targetPoint" />
          </mxGeometry>
        </mxCell>
      </root>
    </mxGraphModel>
  </diagram>
</mxfile>
